<svg id="Layer_1" data-name="Layer 1" xmlns="http://www.w3.org/2000/svg" viewBox="0 0 1092.22 244.52"><defs><style>.cls-1{fill:#a7e3c5;}.cls-2{fill:#f1da73;}.cls-3{fill:#fc4445;stroke:#fc4445;stroke-miterlimit:10;}</style></defs><ellipse class="cls-1" cx="306.21" cy="124.71" rx="110.34" ry="115.41"/><path class="cls-1" d="M1005.9,483.48a120,120,0,0,1-46.21-8.7,113.06,113.06,0,0,1-36.87-24.35,109.79,109.79,0,0,1-24.48-36.91,126.65,126.65,0,0,1,0-92.21,109.89,109.89,0,0,1,24.48-36.91,113.06,113.06,0,0,1,36.87-24.35,120,120,0,0,1,46.21-8.7,132.09,132.09,0,0,1,32.85,4,100.87,100.87,0,0,1,28.66,12.09,11.14,11.14,0,0,1,3.38,3.71,9.72,9.72,0,0,1,1.13,4.67,8.91,8.91,0,0,1-3.06,6.93,9.41,9.41,0,0,1-6.28,2.74,8.2,8.2,0,0,1-2.9-.48c-.86-.32-1.83-.69-2.9-1.13A123.93,123.93,0,0,0,1033,274.4a97.43,97.43,0,0,0-27.05-3.71q-27.71,0-49.27,12.74a91.33,91.33,0,0,0-33.81,34.5q-12.24,21.75-12.24,49.49t12.24,49.65a89.84,89.84,0,0,0,33.81,34.49q21.57,12.58,49.27,12.58A105.71,105.71,0,0,0,1035,460a89.72,89.72,0,0,0,25.28-11.29l-1.61,6.77V381.28l4.83,4.51h-55.71a9.63,9.63,0,0,1-7.08-2.9,9.29,9.29,0,0,1-2.9-6.77,9,9,0,0,1,2.9-7.09,10.26,10.26,0,0,1,7.08-2.58H1069a9.76,9.76,0,0,1,7.24,2.74,9.43,9.43,0,0,1,2.74,6.93v77.7a9.62,9.62,0,0,1-1.29,4.84,12.13,12.13,0,0,1-3.54,3.86,127.73,127.73,0,0,1-32,15.32A117.75,117.75,0,0,1,1005.9,483.48Z" transform="translate(-889.65 -241.68)"/><path class="cls-1" d="M1393.66,311.64q21.9,0,38.8,11a78,78,0,0,1,26.89,30.15q10,19.19,10,44.33,0,24.5-10,44.17t-27,30.95A68,68,0,0,1,1394,483.48a64.21,64.21,0,0,1-21.41-3.55,74.23,74.23,0,0,1-43.64-40.62l5.8-4.51v36.43a10,10,0,0,1-2.74,7.09,9.08,9.08,0,0,1-6.92,2.9,9.89,9.89,0,0,1-10-10V251.67a9.62,9.62,0,0,1,10-9.67,9.11,9.11,0,0,1,6.92,2.9,9.59,9.59,0,0,1,2.74,6.77v108l-4.51-2.58a60,60,0,0,1,9.5-18.22,71.38,71.38,0,0,1,14.65-14.34,67.59,67.59,0,0,1,18.36-9.52A64.88,64.88,0,0,1,1393.66,311.64ZM1392.05,330q-17.38,0-30.59,8.54a58.77,58.77,0,0,0-20.77,23.7q-7.57,15.15-7.57,34.82,0,19.34,7.57,35a60.36,60.36,0,0,0,20.77,24.5q13.2,8.87,30.59,8.87,17.07,0,30.11-9a62.34,62.34,0,0,0,20.61-24.66,78.61,78.61,0,0,0,7.57-34.66q0-19.66-7.57-34.82a59.39,59.39,0,0,0-20.61-23.7Q1409.11,330,1392.05,330Z" transform="translate(-889.65 -241.68)"/><path class="cls-1" d="M1487.7,291c-4.51,0-7.89-1-10.15-3.06s-3.38-5-3.38-8.86v-3.23q0-5.81,3.71-8.86t10.14-3.07q6.11,0,9.5,3.07t3.38,8.86v3.23q0,5.79-3.38,8.86C1495.26,290,1492,291,1487.7,291Zm9.66,179.58a9.91,9.91,0,0,1-9.66,9.68,9,9,0,0,1-7.09-2.9,9.89,9.89,0,0,1-2.57-6.78V322.28a9.56,9.56,0,0,1,2.73-6.77,9.72,9.72,0,0,1,13.85,0,9.57,9.57,0,0,1,2.74,6.77Z" transform="translate(-889.65 -241.68)"/><path class="cls-1" d="M1527.33,470.58a9.91,9.91,0,0,1-9.67,9.68,9.11,9.11,0,0,1-6.92-2.9,9.57,9.57,0,0,1-2.74-6.78V251.35a9.91,9.91,0,0,1,9.66-9.67,9.11,9.11,0,0,1,6.93,2.9,9.57,9.57,0,0,1,2.74,6.77Z" transform="translate(-889.65 -241.68)"/><path class="cls-1" d="M1619.31,486.2q-25.12,0-44-10.64a75.89,75.89,0,0,1-29.46-29.66q-10.64-19-10.63-44.49,0-27.41,10.79-46.75t28-29.83a69.23,69.23,0,0,1,36.55-10.47,78,78,0,0,1,27.54,5,69.15,69.15,0,0,1,23.66,14.83,76.66,76.66,0,0,1,16.75,24q6.43,14.19,6.76,32.89a8.75,8.75,0,0,1-2.9,6.61,9.5,9.5,0,0,1-6.76,2.74H1546.53L1542.67,383h126.55L1665,386.9v-6.45q-1.3-15.15-9.67-25.63a57.25,57.25,0,0,0-20.12-16.12,56.29,56.29,0,0,0-24.64-5.64,55.31,55.31,0,0,0-19.8,3.86A52.1,52.1,0,0,0,1572.45,349a62.3,62.3,0,0,0-13.36,21q-5.16,12.73-5.15,30.15a76,76,0,0,0,7.73,34.49,59.71,59.71,0,0,0,22.21,24.51q14.49,9,35.11,9a58.94,58.94,0,0,0,20-3.22,58.25,58.25,0,0,0,15.94-8.54,63.19,63.19,0,0,0,11.43-11.13,10,10,0,0,1,6.77-2.9,7.82,7.82,0,0,1,6,2.58,8.29,8.29,0,0,1,2.42,5.8,8.88,8.88,0,0,1-3.22,6.77,86.73,86.73,0,0,1-25.12,20.15A68.69,68.69,0,0,1,1619.31,486.2Z" transform="translate(-889.65 -241.68)"/><path class="cls-2" d="M1701.87,316.12a5.43,5.43,0,0,1,2.16.47,5,5,0,0,1,2,1.65l62.07,100.44h-4.32l62.07-100.44q1.73-2.58,4.11-2.12a4.31,4.31,0,0,1,2.81,1.53,4.82,4.82,0,0,1,1.08,3.18V476.07a4.53,4.53,0,0,1-1.4,3.29,4.34,4.34,0,0,1-3.14,1.41,4.21,4.21,0,0,1-3.24-1.41,4.67,4.67,0,0,1-1.3-3.29V331.41h2.38l-58.18,95.73a3.24,3.24,0,0,1-1.19,1.42,3.47,3.47,0,0,1-1.84.47,4.74,4.74,0,0,1-2.06-.47,2.93,2.93,0,0,1-1.4-1.42L1703,329.53h3.46V476.07a4.67,4.67,0,0,1-1.3,3.29,4,4,0,0,1-3,1.41,3.9,3.9,0,0,1-3.13-1.41,4.9,4.9,0,0,1-1.19-3.29V320.83a5.44,5.44,0,0,1,1.08-3.18A3.52,3.52,0,0,1,1701.87,316.12Z" transform="translate(-889.65 -241.68)"/><path class="cls-2" d="M1911.51,316.12q18.21,0,31.54,6.71a60.81,60.81,0,0,1,22,18.34,80.36,80.36,0,0,1,12.74,26.47,114.31,114.31,0,0,1,4.12,30.81,111.35,111.35,0,0,1-7.4,41.28,65.62,65.62,0,0,1-22.92,29.87q-15.54,11.17-40,11.17h-63.08a4.72,4.72,0,0,1-3.39-1.41,4.44,4.44,0,0,1-1.46-3.29V320.83a4.44,4.44,0,0,1,1.46-3.29,4.69,4.69,0,0,1,3.39-1.42Zm-2.42,155.25q22.32,0,36-9.77a56.6,56.6,0,0,0,20.13-26.34,101,101,0,0,0,6.43-36.81,106.46,106.46,0,0,0-3.51-27.52,69.56,69.56,0,0,0-11-23.41,52.7,52.7,0,0,0-19.41-16.11q-11.9-5.88-28.63-5.88h-56.77l1.45-1.88V473.48l-1.45-2.11Z" transform="translate(-889.65 -241.68)"/><path class="cls-3" d="M1193.43,387.35c-25.84-3.65-24.69-44.54-24.69-44.54l11.28.59.23-4.25s5,.21,5.53.29.2,2.32.2,2.32l-.38,10.44-6-.32s.11-2,.11-2.11a21.39,21.39,0,0,0-5.41-.18c.33,14.47,8.55,36.4,25,32.39,18.57-4.54,17.3-33.67,17.3-33.67l-6.36-.33-.18,3.36h-3.6l-1.31-.07.69-13.08,5.06.26-.24,4.59,11.75.61c-1.84,20.68-5,40-22.91,43.84a40.56,40.56,0,0,1,.08,4.48,18.52,18.52,0,0,1-3.39,9.6A19.19,19.19,0,0,1,1178.5,409c-6.13-.82-11.72-4.35-16.26-8.86-6.22-6.16-11-14-15.5-21.64-3.61-6.2-6.83-12.35-8.65-19.41-3-11.72,1.12-26.35,8.68-35.14a30.87,30.87,0,0,1,36.93-7.89,35.8,35.8,0,0,1,10.92,7.67c30.7-26.78,50.06.64,50.06.64,20.71,22.79,4.17,56-12.39,75.6a107.53,107.53,0,0,1-18.83,17.52c-1.55,1.12-4,2.13-5.28,3.57s-.74,2.37-.88,4.45c-.26,3.76-1.86,7.17-5,9-8.48,5-18.1-5.36-12.86-14.42,3.26-5.63,10.8-6.36,15.52-2.6,21.64-16.25,30.09-30.86,30.09-30.86,24.33-36.3,6.5-55.53,6.5-55.53-22.87-29.19-46.89,2.42-46.89,2.42-7.55-9-18.35-17.1-30.17-13.63-8.26,2.42-14.69,9.72-18.18,18-4.11,9.71-3.26,19.09.84,28.57a133.73,133.73,0,0,0,10.66,20.21c.43.65.87,1.31,1.32,2,3.59,5.14,8.06,10.08,13.47,12.71a13.09,13.09,0,0,0,5.79,1.45C1188.44,402.69,1194.21,398.29,1193.43,387.35Z" transform="translate(-889.65 -241.68)"/></svg>